<svg width="102" height="87" viewBox="0 0 102 87" fill="none" xmlns="http://www.w3.org/2000/svg">
<rect width="84.2202" height="84.2202" transform="translate(9.16972 1.38989)" fill="white"/>
<path d="M14.0633 6.30237H16.0813V8.32029H14.0633V6.30237ZM16.0813 6.30237H18.0992V8.32029H16.0813V6.30237ZM18.0992 6.30237H20.1171V8.32029H18.0992V6.30237ZM20.1171 6.30237H22.135V8.32029H20.1171V6.30237ZM22.135 6.30237H24.153V8.32029H22.135V6.30237ZM24.153 6.30237H26.1709V8.32029H24.153V6.30237ZM26.1709 6.30237H28.1888V8.32029H26.1709V6.30237ZM32.2247 6.30237H34.2426V8.32029H32.2247V6.30237ZM34.2426 6.30237H36.2605V8.32029H34.2426V6.30237ZM36.2605 6.30237H38.2784V8.32029H36.2605V6.30237ZM42.3143 6.30237H44.3322V8.32029H42.3143V6.30237ZM44.3322 6.30237H46.3502V8.32029H44.3322V6.30237ZM46.3502 6.30237H48.3681V8.32029H46.3502V6.30237ZM52.4039 6.30237H54.4219V8.32029H52.4039V6.30237ZM54.4219 6.30237H56.4398V8.32029H54.4219V6.30237ZM56.4398 6.30237H58.4577V8.32029H56.4398V6.30237ZM58.4577 6.30237H60.4756V8.32029H58.4577V6.30237ZM62.4936 6.30237H64.5115V8.32029H62.4936V6.30237ZM70.5653 6.30237H72.5832V8.32029H70.5653V6.30237ZM74.6011 6.30237H76.619V8.32029H74.6011V6.30237ZM76.619 6.30237H78.637V8.32029H76.619V6.30237ZM78.637 6.30237H80.6549V8.32029H78.637V6.30237ZM80.6549 6.30237H82.6728V8.32029H80.6549V6.30237ZM82.6728 6.30237H84.6908V8.32029H82.6728V6.30237ZM84.6908 6.30237H86.7087V8.32029H84.6908V6.30237ZM86.7087 6.30237H88.7266V8.32029H86.7087V6.30237ZM14.0633 8.32029H16.0813V10.3382H14.0633V8.32029ZM26.1709 8.32029H28.1888V10.3382H26.1709V8.32029ZM30.2067 8.32029H32.2247V10.3382H30.2067V8.32029ZM32.2247 8.32029H34.2426V10.3382H32.2247V8.32029ZM34.2426 8.32029H36.2605V10.3382H34.2426V8.32029ZM38.2784 8.32029H40.2964V10.3382H38.2784V8.32029ZM44.3322 8.32029H46.3502V10.3382H44.3322V8.32029ZM46.3502 8.32029H48.3681V10.3382H46.3502V8.32029ZM52.4039 8.32029H54.4219V10.3382H52.4039V8.32029ZM54.4219 8.32029H56.4398V10.3382H54.4219V8.32029ZM58.4577 8.32029H60.4756V10.3382H58.4577V8.32029ZM60.4756 8.32029H62.4936V10.3382H60.4756V8.32029ZM62.4936 8.32029H64.5115V10.3382H62.4936V8.32029ZM64.5115 8.32029H66.5294V10.3382H64.5115V8.32029ZM66.5294 8.32029H68.5473V10.3382H66.5294V8.32029ZM70.5653 8.32029H72.5832V10.3382H70.5653V8.32029ZM74.6011 8.32029H76.619V10.3382H74.6011V8.32029ZM86.7087 8.32029H88.7266V10.3382H86.7087V8.32029ZM14.0633 10.3382H16.0813V12.3561H14.0633V10.3382ZM18.0992 10.3382H20.1171V12.3561H18.0992V10.3382ZM20.1171 10.3382H22.135V12.3561H20.1171V10.3382ZM22.135 10.3382H24.153V12.3561H22.135V10.3382ZM26.1709 10.3382H28.1888V12.3561H26.1709V10.3382ZM30.2067 10.3382H32.2247V12.3561H30.2067V10.3382ZM34.2426 10.3382H36.2605V12.3561H34.2426V10.3382ZM36.2605 10.3382H38.2784V12.3561H36.2605V10.3382ZM42.3143 10.3382H44.3322V12.3561H42.3143V10.3382ZM44.3322 10.3382H46.3502V12.3561H44.3322V10.3382ZM46.3502 10.3382H48.3681V12.3561H46.3502V10.3382ZM48.3681 10.3382H50.386V12.3561H48.3681V10.3382ZM64.5115 10.3382H66.5294V12.3561H64.5115V10.3382ZM68.5473 10.3382H70.5653V12.3561H68.5473V10.3382ZM74.6011 10.3382H76.619V12.3561H74.6011V10.3382ZM78.637 10.3382H80.6549V12.3561H78.637V10.3382ZM80.6549 10.3382H82.6728V12.3561H80.6549V10.3382ZM82.6728 10.3382H84.6908V12.3561H82.6728V10.3382ZM86.7087 10.3382H88.7266V12.3561H86.7087V10.3382ZM14.0633 12.3561H16.0813V14.3741H14.0633V12.3561ZM18.0992 12.3561H20.1171V14.3741H18.0992V12.3561ZM20.1171 12.3561H22.135V14.3741H20.1171V12.3561ZM22.135 12.3561H24.153V14.3741H22.135V12.3561ZM26.1709 12.3561H28.1888V14.3741H26.1709V12.3561ZM32.2247 12.3561H34.2426V14.3741H32.2247V12.3561ZM36.2605 12.3561H38.2784V14.3741H36.2605V12.3561ZM38.2784 12.3561H40.2964V14.3741H38.2784V12.3561ZM40.2964 12.3561H42.3143V14.3741H40.2964V12.3561ZM44.3322 12.3561H46.3502V14.3741H44.3322V12.3561ZM48.3681 12.3561H50.386V14.3741H48.3681V12.3561ZM50.386 12.3561H52.4039V14.3741H50.386V12.3561ZM52.4039 12.3561H54.4219V14.3741H52.4039V12.3561ZM54.4219 12.3561H56.4398V14.3741H54.4219V12.3561ZM64.5115 12.3561H66.5294V14.3741H64.5115V12.3561ZM66.5294 12.3561H68.5473V14.3741H66.5294V12.3561ZM68.5473 12.3561H70.5653V14.3741H68.5473V12.3561ZM74.6011 12.3561H76.619V14.3741H74.6011V12.3561ZM78.637 12.3561H80.6549V14.3741H78.637V12.3561ZM80.6549 12.3561H82.6728V14.3741H80.6549V12.3561ZM82.6728 12.3561H84.6908V14.3741H82.6728V12.3561ZM86.7087 12.3561H88.7266V14.3741H86.7087V12.3561ZM14.0633 14.3741H16.0813V16.392H14.0633V14.3741ZM18.0992 14.3741H20.1171V16.392H18.0992V14.3741ZM20.1171 14.3741H22.135V16.392H20.1171V14.3741ZM22.135 14.3741H24.153V16.392H22.135V14.3741ZM26.1709 14.3741H28.1888V16.392H26.1709V14.3741ZM36.2605 14.3741H38.2784V16.392H36.2605V14.3741ZM40.2964 14.3741H42.3143V16.392H40.2964V14.3741ZM44.3322 14.3741H46.3502V16.392H44.3322V14.3741ZM46.3502 14.3741H48.3681V16.392H46.3502V14.3741ZM48.3681 14.3741H50.386V16.392H48.3681V14.3741ZM56.4398 14.3741H58.4577V16.392H56.4398V14.3741ZM62.4936 14.3741H64.5115V16.392H62.4936V14.3741ZM68.5473 14.3741H70.5653V16.392H68.5473V14.3741ZM74.6011 14.3741H76.619V16.392H74.6011V14.3741ZM78.637 14.3741H80.6549V16.392H78.637V14.3741ZM80.6549 14.3741H82.6728V16.392H80.6549V14.3741ZM82.6728 14.3741H84.6908V16.392H82.6728V14.3741ZM86.7087 14.3741H88.7266V16.392H86.7087V14.3741ZM14.0633 16.392H16.0813V18.4099H14.0633V16.392ZM26.1709 16.392H28.1888V18.4099H26.1709V16.392ZM48.3681 16.392H50.386V18.4099H48.3681V16.392ZM50.386 16.392H52.4039V18.4099H50.386V16.392ZM52.4039 16.392H54.4219V18.4099H52.4039V16.392ZM56.4398 16.392H58.4577V18.4099H56.4398V16.392ZM74.6011 16.392H76.619V18.4099H74.6011V16.392ZM86.7087 16.392H88.7266V18.4099H86.7087V16.392ZM14.0633 18.4099H16.0813V20.4279H14.0633V18.4099ZM16.0813 18.4099H18.0992V20.4279H16.0813V18.4099ZM18.0992 18.4099H20.1171V20.4279H18.0992V18.4099ZM20.1171 18.4099H22.135V20.4279H20.1171V18.4099ZM22.135 18.4099H24.153V20.4279H22.135V18.4099ZM24.153 18.4099H26.1709V20.4279H24.153V18.4099ZM26.1709 18.4099H28.1888V20.4279H26.1709V18.4099ZM30.2067 18.4099H32.2247V20.4279H30.2067V18.4099ZM34.2426 18.4099H36.2605V20.4279H34.2426V18.4099ZM38.2784 18.4099H40.2964V20.4279H38.2784V18.4099ZM42.3143 18.4099H44.3322V20.4279H42.3143V18.4099ZM46.3502 18.4099H48.3681V20.4279H46.3502V18.4099ZM50.386 18.4099H52.4039V20.4279H50.386V18.4099ZM54.4219 18.4099H56.4398V20.4279H54.4219V18.4099ZM58.4577 18.4099H60.4756V20.4279H58.4577V18.4099ZM62.4936 18.4099H64.5115V20.4279H62.4936V18.4099ZM66.5294 18.4099H68.5473V20.4279H66.5294V18.4099ZM70.5653 18.4099H72.5832V20.4279H70.5653V18.4099ZM74.6011 18.4099H76.619V20.4279H74.6011V18.4099ZM76.619 18.4099H78.637V20.4279H76.619V18.4099ZM78.637 18.4099H80.6549V20.4279H78.637V18.4099ZM80.6549 18.4099H82.6728V20.4279H80.6549V18.4099ZM82.6728 18.4099H84.6908V20.4279H82.6728V18.4099ZM84.6908 18.4099H86.7087V20.4279H84.6908V18.4099ZM86.7087 18.4099H88.7266V20.4279H86.7087V18.4099ZM34.2426 20.4279H36.2605V22.4458H34.2426V20.4279ZM42.3143 20.4279H44.3322V22.4458H42.3143V20.4279ZM48.3681 20.4279H50.386V22.4458H48.3681V20.4279ZM62.4936 20.4279H64.5115V22.4458H62.4936V20.4279ZM68.5473 20.4279H70.5653V22.4458H68.5473V20.4279ZM70.5653 20.4279H72.5832V22.4458H70.5653V20.4279ZM16.0813 22.4458H18.0992V24.4637H16.0813V22.4458ZM18.0992 22.4458H20.1171V24.4637H18.0992V22.4458ZM20.1171 22.4458H22.135V24.4637H20.1171V22.4458ZM24.153 22.4458H26.1709V24.4637H24.153V22.4458ZM26.1709 22.4458H28.1888V24.4637H26.1709V22.4458ZM34.2426 22.4458H36.2605V24.4637H34.2426V22.4458ZM36.2605 22.4458H38.2784V24.4637H36.2605V22.4458ZM38.2784 22.4458H40.2964V24.4637H38.2784V22.4458ZM40.2964 22.4458H42.3143V24.4637H40.2964V22.4458ZM42.3143 22.4458H44.3322V24.4637H42.3143V22.4458ZM46.3502 22.4458H48.3681V24.4637H46.3502V22.4458ZM50.386 22.4458H52.4039V24.4637H50.386V22.4458ZM56.4398 22.4458H58.4577V24.4637H56.4398V22.4458ZM58.4577 22.4458H60.4756V24.4637H58.4577V22.4458ZM60.4756 22.4458H62.4936V24.4637H60.4756V22.4458ZM66.5294 22.4458H68.5473V24.4637H66.5294V22.4458ZM68.5473 22.4458H70.5653V24.4637H68.5473V22.4458ZM82.6728 22.4458H84.6908V24.4637H82.6728V22.4458ZM84.6908 22.4458H86.7087V24.4637H84.6908V22.4458ZM16.0813 24.4637H18.0992V26.4816H16.0813V24.4637ZM18.0992 24.4637H20.1171V26.4816H18.0992V24.4637ZM24.153 24.4637H26.1709V26.4816H24.153V24.4637ZM30.2067 24.4637H32.2247V26.4816H30.2067V24.4637ZM32.2247 24.4637H34.2426V26.4816H32.2247V24.4637ZM36.2605 24.4637H38.2784V26.4816H36.2605V24.4637ZM38.2784 24.4637H40.2964V26.4816H38.2784V24.4637ZM40.2964 24.4637H42.3143V26.4816H40.2964V24.4637ZM42.3143 24.4637H44.3322V26.4816H42.3143V24.4637ZM44.3322 24.4637H46.3502V26.4816H44.3322V24.4637ZM50.386 24.4637H52.4039V26.4816H50.386V24.4637ZM52.4039 24.4637H54.4219V26.4816H52.4039V24.4637ZM56.4398 24.4637H58.4577V26.4816H56.4398V24.4637ZM60.4756 24.4637H62.4936V26.4816H60.4756V24.4637ZM64.5115 24.4637H66.5294V26.4816H64.5115V24.4637ZM66.5294 24.4637H68.5473V26.4816H66.5294V24.4637ZM70.5653 24.4637H72.5832V26.4816H70.5653V24.4637ZM72.5832 24.4637H74.6011V26.4816H72.5832V24.4637ZM76.619 24.4637H78.637V26.4816H76.619V24.4637ZM18.0992 26.4816H20.1171V28.4996H18.0992V26.4816ZM20.1171 26.4816H22.135V28.4996H20.1171V26.4816ZM26.1709 26.4816H28.1888V28.4996H26.1709V26.4816ZM30.2067 26.4816H32.2247V28.4996H30.2067V26.4816ZM32.2247 26.4816H34.2426V28.4996H32.2247V26.4816ZM36.2605 26.4816H38.2784V28.4996H36.2605V26.4816ZM40.2964 26.4816H42.3143V28.4996H40.2964V26.4816ZM52.4039 26.4816H54.4219V28.4996H52.4039V26.4816ZM54.4219 26.4816H56.4398V28.4996H54.4219V26.4816ZM58.4577 26.4816H60.4756V28.4996H58.4577V26.4816ZM60.4756 26.4816H62.4936V28.4996H60.4756V26.4816ZM62.4936 26.4816H64.5115V28.4996H62.4936V26.4816ZM64.5115 26.4816H66.5294V28.4996H64.5115V26.4816ZM70.5653 26.4816H72.5832V28.4996H70.5653V26.4816ZM72.5832 26.4816H74.6011V28.4996H72.5832V26.4816ZM78.637 26.4816H80.6549V28.4996H78.637V26.4816ZM82.6728 26.4816H84.6908V28.4996H82.6728V26.4816ZM18.0992 28.4996H20.1171V30.5175H18.0992V28.4996ZM32.2247 28.4996H34.2426V30.5175H32.2247V28.4996ZM34.2426 28.4996H36.2605V30.5175H34.2426V28.4996ZM38.2784 28.4996H40.2964V30.5175H38.2784V28.4996ZM40.2964 28.4996H42.3143V30.5175H40.2964V28.4996ZM46.3502 28.4996H48.3681V30.5175H46.3502V28.4996ZM48.3681 28.4996H50.386V30.5175H48.3681V28.4996ZM50.386 28.4996H52.4039V30.5175H50.386V28.4996ZM58.4577 28.4996H60.4756V30.5175H58.4577V28.4996ZM64.5115 28.4996H66.5294V30.5175H64.5115V28.4996ZM66.5294 28.4996H68.5473V30.5175H66.5294V28.4996ZM70.5653 28.4996H72.5832V30.5175H70.5653V28.4996ZM78.637 28.4996H80.6549V30.5175H78.637V28.4996ZM80.6549 28.4996H82.6728V30.5175H80.6549V28.4996ZM82.6728 28.4996H84.6908V30.5175H82.6728V28.4996ZM84.6908 28.4996H86.7087V30.5175H84.6908V28.4996ZM86.7087 28.4996H88.7266V30.5175H86.7087V28.4996ZM14.0633 30.5175H16.0813V32.5354H14.0633V30.5175ZM20.1171 30.5175H22.135V32.5354H20.1171V30.5175ZM22.135 30.5175H24.153V32.5354H22.135V30.5175ZM24.153 30.5175H26.1709V32.5354H24.153V30.5175ZM26.1709 30.5175H28.1888V32.5354H26.1709V30.5175ZM28.1888 30.5175H30.2067V32.5354H28.1888V30.5175ZM30.2067 30.5175H32.2247V32.5354H30.2067V30.5175ZM32.2247 30.5175H34.2426V32.5354H32.2247V30.5175ZM36.2605 30.5175H38.2784V32.5354H36.2605V30.5175ZM38.2784 30.5175H40.2964V32.5354H38.2784V30.5175ZM42.3143 30.5175H44.3322V32.5354H42.3143V30.5175ZM50.386 30.5175H52.4039V32.5354H50.386V30.5175ZM52.4039 30.5175H54.4219V32.5354H52.4039V30.5175ZM60.4756 30.5175H62.4936V32.5354H60.4756V30.5175ZM62.4936 30.5175H64.5115V32.5354H62.4936V30.5175ZM64.5115 30.5175H66.5294V32.5354H64.5115V30.5175ZM66.5294 30.5175H68.5473V32.5354H66.5294V30.5175ZM68.5473 30.5175H70.5653V32.5354H68.5473V30.5175ZM70.5653 30.5175H72.5832V32.5354H70.5653V30.5175ZM72.5832 30.5175H74.6011V32.5354H72.5832V30.5175ZM74.6011 30.5175H76.619V32.5354H74.6011V30.5175ZM78.637 30.5175H80.6549V32.5354H78.637V30.5175ZM80.6549 30.5175H82.6728V32.5354H80.6549V30.5175ZM82.6728 30.5175H84.6908V32.5354H82.6728V30.5175ZM84.6908 30.5175H86.7087V32.5354H84.6908V30.5175ZM22.135 32.5354H24.153V34.5533H22.135V32.5354ZM24.153 32.5354H26.1709V34.5533H24.153V32.5354ZM30.2067 32.5354H32.2247V34.5533H30.2067V32.5354ZM32.2247 32.5354H34.2426V34.5533H32.2247V32.5354ZM34.2426 32.5354H36.2605V34.5533H34.2426V32.5354ZM38.2784 32.5354H40.2964V34.5533H38.2784V32.5354ZM54.4219 32.5354H56.4398V34.5533H54.4219V32.5354ZM56.4398 32.5354H58.4577V34.5533H56.4398V32.5354ZM62.4936 32.5354H64.5115V34.5533H62.4936V32.5354ZM64.5115 32.5354H66.5294V34.5533H64.5115V32.5354ZM66.5294 32.5354H68.5473V34.5533H66.5294V32.5354ZM68.5473 32.5354H70.5653V34.5533H68.5473V32.5354ZM70.5653 32.5354H72.5832V34.5533H70.5653V32.5354ZM74.6011 32.5354H76.619V34.5533H74.6011V32.5354ZM76.619 32.5354H78.637V34.5533H76.619V32.5354ZM78.637 32.5354H80.6549V34.5533H78.637V32.5354ZM82.6728 32.5354H84.6908V34.5533H82.6728V32.5354ZM84.6908 32.5354H86.7087V34.5533H84.6908V32.5354ZM86.7087 32.5354H88.7266V34.5533H86.7087V32.5354ZM14.0633 34.5533H16.0813V36.5713H14.0633V34.5533ZM16.0813 34.5533H18.0992V36.5713H16.0813V34.5533ZM20.1171 34.5533H22.135V36.5713H20.1171V34.5533ZM22.135 34.5533H24.153V36.5713H22.135V34.5533ZM26.1709 34.5533H28.1888V36.5713H26.1709V34.5533ZM28.1888 34.5533H30.2067V36.5713H28.1888V34.5533ZM30.2067 34.5533H32.2247V36.5713H30.2067V34.5533ZM32.2247 34.5533H34.2426V36.5713H32.2247V34.5533ZM36.2605 34.5533H38.2784V36.5713H36.2605V34.5533ZM38.2784 34.5533H40.2964V36.5713H38.2784V34.5533ZM42.3143 34.5533H44.3322V36.5713H42.3143V34.5533ZM44.3322 34.5533H46.3502V36.5713H44.3322V34.5533ZM48.3681 34.5533H50.386V36.5713H48.3681V34.5533ZM50.386 34.5533H52.4039V36.5713H50.386V34.5533ZM56.4398 34.5533H58.4577V36.5713H56.4398V34.5533ZM62.4936 34.5533H64.5115V36.5713H62.4936V34.5533ZM66.5294 34.5533H68.5473V36.5713H66.5294V34.5533ZM76.619 34.5533H78.637V36.5713H76.619V34.5533ZM82.6728 34.5533H84.6908V36.5713H82.6728V34.5533ZM84.6908 34.5533H86.7087V36.5713H84.6908V34.5533ZM18.0992 36.5713H20.1171V38.5892H18.0992V36.5713ZM20.1171 36.5713H22.135V38.5892H20.1171V36.5713ZM22.135 36.5713H24.153V38.5892H22.135V36.5713ZM30.2067 36.5713H32.2247V38.5892H30.2067V36.5713ZM32.2247 36.5713H34.2426V38.5892H32.2247V36.5713ZM34.2426 36.5713H36.2605V38.5892H34.2426V36.5713ZM40.2964 36.5713H42.3143V38.5892H40.2964V36.5713ZM42.3143 36.5713H44.3322V38.5892H42.3143V36.5713ZM44.3322 36.5713H46.3502V38.5892H44.3322V36.5713ZM48.3681 36.5713H50.386V38.5892H48.3681V36.5713ZM54.4219 36.5713H56.4398V38.5892H54.4219V36.5713ZM66.5294 36.5713H68.5473V38.5892H66.5294V36.5713ZM68.5473 36.5713H70.5653V38.5892H68.5473V36.5713ZM72.5832 36.5713H74.6011V38.5892H72.5832V36.5713ZM74.6011 36.5713H76.619V38.5892H74.6011V36.5713ZM76.619 36.5713H78.637V38.5892H76.619V36.5713ZM84.6908 36.5713H86.7087V38.5892H84.6908V36.5713ZM86.7087 36.5713H88.7266V38.5892H86.7087V36.5713ZM22.135 38.5892H24.153V40.6071H22.135V38.5892ZM24.153 38.5892H26.1709V40.6071H24.153V38.5892ZM26.1709 38.5892H28.1888V40.6071H26.1709V38.5892ZM28.1888 38.5892H30.2067V40.6071H28.1888V38.5892ZM30.2067 38.5892H32.2247V40.6071H30.2067V38.5892ZM34.2426 38.5892H36.2605V40.6071H34.2426V38.5892ZM36.2605 38.5892H38.2784V40.6071H36.2605V38.5892ZM38.2784 38.5892H40.2964V40.6071H38.2784V38.5892ZM42.3143 38.5892H44.3322V40.6071H42.3143V38.5892ZM44.3322 38.5892H46.3502V40.6071H44.3322V38.5892ZM46.3502 38.5892H48.3681V40.6071H46.3502V38.5892ZM52.4039 38.5892H54.4219V40.6071H52.4039V38.5892ZM54.4219 38.5892H56.4398V40.6071H54.4219V38.5892ZM58.4577 38.5892H60.4756V40.6071H58.4577V38.5892ZM64.5115 38.5892H66.5294V40.6071H64.5115V38.5892ZM80.6549 38.5892H82.6728V40.6071H80.6549V38.5892ZM82.6728 38.5892H84.6908V40.6071H82.6728V38.5892ZM16.0813 40.6071H18.0992V42.625H16.0813V40.6071ZM20.1171 40.6071H22.135V42.625H20.1171V40.6071ZM22.135 40.6071H24.153V42.625H22.135V40.6071ZM28.1888 40.6071H30.2067V42.625H28.1888V40.6071ZM30.2067 40.6071H32.2247V42.625H30.2067V40.6071ZM32.2247 40.6071H34.2426V42.625H32.2247V40.6071ZM34.2426 40.6071H36.2605V42.625H34.2426V40.6071ZM38.2784 40.6071H40.2964V42.625H38.2784V40.6071ZM42.3143 40.6071H44.3322V42.625H42.3143V40.6071ZM46.3502 40.6071H48.3681V42.625H46.3502V40.6071ZM52.4039 40.6071H54.4219V42.625H52.4039V40.6071ZM56.4398 40.6071H58.4577V42.625H56.4398V40.6071ZM58.4577 40.6071H60.4756V42.625H58.4577V40.6071ZM62.4936 40.6071H64.5115V42.625H62.4936V40.6071ZM64.5115 40.6071H66.5294V42.625H64.5115V40.6071ZM66.5294 40.6071H68.5473V42.625H66.5294V40.6071ZM68.5473 40.6071H70.5653V42.625H68.5473V40.6071ZM72.5832 40.6071H74.6011V42.625H72.5832V40.6071ZM74.6011 40.6071H76.619V42.625H74.6011V40.6071ZM86.7087 40.6071H88.7266V42.625H86.7087V40.6071ZM16.0813 42.625H18.0992V44.643H16.0813V42.625ZM20.1171 42.625H22.135V44.643H20.1171V42.625ZM24.153 42.625H26.1709V44.643H24.153V42.625ZM26.1709 42.625H28.1888V44.643H26.1709V42.625ZM28.1888 42.625H30.2067V44.643H28.1888V42.625ZM30.2067 42.625H32.2247V44.643H30.2067V42.625ZM34.2426 42.625H36.2605V44.643H34.2426V42.625ZM42.3143 42.625H44.3322V44.643H42.3143V42.625ZM48.3681 42.625H50.386V44.643H48.3681V42.625ZM54.4219 42.625H56.4398V44.643H54.4219V42.625ZM58.4577 42.625H60.4756V44.643H58.4577V42.625ZM60.4756 42.625H62.4936V44.643H60.4756V42.625ZM62.4936 42.625H64.5115V44.643H62.4936V42.625ZM66.5294 42.625H68.5473V44.643H66.5294V42.625ZM68.5473 42.625H70.5653V44.643H68.5473V42.625ZM72.5832 42.625H74.6011V44.643H72.5832V42.625ZM74.6011 42.625H76.619V44.643H74.6011V42.625ZM78.637 42.625H80.6549V44.643H78.637V42.625ZM80.6549 42.625H82.6728V44.643H80.6549V42.625ZM82.6728 42.625H84.6908V44.643H82.6728V42.625ZM84.6908 42.625H86.7087V44.643H84.6908V42.625ZM86.7087 42.625H88.7266V44.643H86.7087V42.625ZM14.0633 44.643H16.0813V46.6609H14.0633V44.643ZM16.0813 44.643H18.0992V46.6609H16.0813V44.643ZM18.0992 44.643H20.1171V46.6609H18.0992V44.643ZM20.1171 44.643H22.135V46.6609H20.1171V44.643ZM42.3143 44.643H44.3322V46.6609H42.3143V44.643ZM44.3322 44.643H46.3502V46.6609H44.3322V44.643ZM48.3681 44.643H50.386V46.6609H48.3681V44.643ZM50.386 44.643H52.4039V46.6609H50.386V44.643ZM54.4219 44.643H56.4398V46.6609H54.4219V44.643ZM62.4936 44.643H64.5115V46.6609H62.4936V44.643ZM66.5294 44.643H68.5473V46.6609H66.5294V44.643ZM68.5473 44.643H70.5653V46.6609H68.5473V44.643ZM70.5653 44.643H72.5832V46.6609H70.5653V44.643ZM78.637 44.643H80.6549V46.6609H78.637V44.643ZM80.6549 44.643H82.6728V46.6609H80.6549V44.643ZM86.7087 44.643H88.7266V46.6609H86.7087V44.643ZM18.0992 46.6609H20.1171V48.6788H18.0992V46.6609ZM20.1171 46.6609H22.135V48.6788H20.1171V46.6609ZM24.153 46.6609H26.1709V48.6788H24.153V46.6609ZM26.1709 46.6609H28.1888V48.6788H26.1709V46.6609ZM30.2067 46.6609H32.2247V48.6788H30.2067V46.6609ZM34.2426 46.6609H36.2605V48.6788H34.2426V46.6609ZM36.2605 46.6609H38.2784V48.6788H36.2605V46.6609ZM40.2964 46.6609H42.3143V48.6788H40.2964V46.6609ZM46.3502 46.6609H48.3681V48.6788H46.3502V46.6609ZM48.3681 46.6609H50.386V48.6788H48.3681V46.6609ZM50.386 46.6609H52.4039V48.6788H50.386V46.6609ZM56.4398 46.6609H58.4577V48.6788H56.4398V46.6609ZM60.4756 46.6609H62.4936V48.6788H60.4756V46.6609ZM66.5294 46.6609H68.5473V48.6788H66.5294V46.6609ZM68.5473 46.6609H70.5653V48.6788H68.5473V46.6609ZM70.5653 46.6609H72.5832V48.6788H70.5653V46.6609ZM72.5832 46.6609H74.6011V48.6788H72.5832V46.6609ZM78.637 46.6609H80.6549V48.6788H78.637V46.6609ZM84.6908 46.6609H86.7087V48.6788H84.6908V46.6609ZM16.0813 48.6788H18.0992V50.6968H16.0813V48.6788ZM18.0992 48.6788H20.1171V50.6968H18.0992V48.6788ZM20.1171 48.6788H22.135V50.6968H20.1171V48.6788ZM22.135 48.6788H24.153V50.6968H22.135V48.6788ZM24.153 48.6788H26.1709V50.6968H24.153V48.6788ZM28.1888 48.6788H30.2067V50.6968H28.1888V48.6788ZM30.2067 48.6788H32.2247V50.6968H30.2067V48.6788ZM36.2605 48.6788H38.2784V50.6968H36.2605V48.6788ZM38.2784 48.6788H40.2964V50.6968H38.2784V48.6788ZM48.3681 48.6788H50.386V50.6968H48.3681V48.6788ZM60.4756 48.6788H62.4936V50.6968H60.4756V48.6788ZM72.5832 48.6788H74.6011V50.6968H72.5832V48.6788ZM76.619 48.6788H78.637V50.6968H76.619V48.6788ZM82.6728 48.6788H84.6908V50.6968H82.6728V48.6788ZM14.0633 50.6968H16.0813V52.7147H14.0633V50.6968ZM16.0813 50.6968H18.0992V52.7147H16.0813V50.6968ZM20.1171 50.6968H22.135V52.7147H20.1171V50.6968ZM24.153 50.6968H26.1709V52.7147H24.153V50.6968ZM26.1709 50.6968H28.1888V52.7147H26.1709V50.6968ZM32.2247 50.6968H34.2426V52.7147H32.2247V50.6968ZM38.2784 50.6968H40.2964V52.7147H38.2784V50.6968ZM40.2964 50.6968H42.3143V52.7147H40.2964V50.6968ZM42.3143 50.6968H44.3322V52.7147H42.3143V50.6968ZM44.3322 50.6968H46.3502V52.7147H44.3322V50.6968ZM46.3502 50.6968H48.3681V52.7147H46.3502V50.6968ZM48.3681 50.6968H50.386V52.7147H48.3681V50.6968ZM54.4219 50.6968H56.4398V52.7147H54.4219V50.6968ZM56.4398 50.6968H58.4577V52.7147H56.4398V50.6968ZM58.4577 50.6968H60.4756V52.7147H58.4577V50.6968ZM60.4756 50.6968H62.4936V52.7147H60.4756V50.6968ZM62.4936 50.6968H64.5115V52.7147H62.4936V50.6968ZM66.5294 50.6968H68.5473V52.7147H66.5294V50.6968ZM78.637 50.6968H80.6549V52.7147H78.637V50.6968ZM80.6549 50.6968H82.6728V52.7147H80.6549V50.6968ZM20.1171 52.7147H22.135V54.7326H20.1171V52.7147ZM24.153 52.7147H26.1709V54.7326H24.153V52.7147ZM32.2247 52.7147H34.2426V54.7326H32.2247V52.7147ZM36.2605 52.7147H38.2784V54.7326H36.2605V52.7147ZM40.2964 52.7147H42.3143V54.7326H40.2964V52.7147ZM46.3502 52.7147H48.3681V54.7326H46.3502V52.7147ZM54.4219 52.7147H56.4398V54.7326H54.4219V52.7147ZM62.4936 52.7147H64.5115V54.7326H62.4936V52.7147ZM64.5115 52.7147H66.5294V54.7326H64.5115V52.7147ZM68.5473 52.7147H70.5653V54.7326H68.5473V52.7147ZM70.5653 52.7147H72.5832V54.7326H70.5653V52.7147ZM80.6549 52.7147H82.6728V54.7326H80.6549V52.7147ZM82.6728 52.7147H84.6908V54.7326H82.6728V52.7147ZM84.6908 52.7147H86.7087V54.7326H84.6908V52.7147ZM16.0813 54.7326H18.0992V56.7505H16.0813V54.7326ZM18.0992 54.7326H20.1171V56.7505H18.0992V54.7326ZM24.153 54.7326H26.1709V56.7505H24.153V54.7326ZM26.1709 54.7326H28.1888V56.7505H26.1709V54.7326ZM28.1888 54.7326H30.2067V56.7505H28.1888V54.7326ZM30.2067 54.7326H32.2247V56.7505H30.2067V54.7326ZM32.2247 54.7326H34.2426V56.7505H32.2247V54.7326ZM34.2426 54.7326H36.2605V56.7505H34.2426V54.7326ZM36.2605 54.7326H38.2784V56.7505H36.2605V54.7326ZM40.2964 54.7326H42.3143V56.7505H40.2964V54.7326ZM44.3322 54.7326H46.3502V56.7505H44.3322V54.7326ZM46.3502 54.7326H48.3681V56.7505H46.3502V54.7326ZM50.386 54.7326H52.4039V56.7505H50.386V54.7326ZM52.4039 54.7326H54.4219V56.7505H52.4039V54.7326ZM58.4577 54.7326H60.4756V56.7505H58.4577V54.7326ZM62.4936 54.7326H64.5115V56.7505H62.4936V54.7326ZM64.5115 54.7326H66.5294V56.7505H64.5115V54.7326ZM66.5294 54.7326H68.5473V56.7505H66.5294V54.7326ZM74.6011 54.7326H76.619V56.7505H74.6011V54.7326ZM78.637 54.7326H80.6549V56.7505H78.637V54.7326ZM80.6549 54.7326H82.6728V56.7505H80.6549V54.7326ZM82.6728 54.7326H84.6908V56.7505H82.6728V54.7326ZM84.6908 54.7326H86.7087V56.7505H84.6908V54.7326ZM86.7087 54.7326H88.7266V56.7505H86.7087V54.7326ZM16.0813 56.7505H18.0992V58.7685H16.0813V56.7505ZM20.1171 56.7505H22.135V58.7685H20.1171V56.7505ZM28.1888 56.7505H30.2067V58.7685H28.1888V56.7505ZM30.2067 56.7505H32.2247V58.7685H30.2067V56.7505ZM34.2426 56.7505H36.2605V58.7685H34.2426V56.7505ZM40.2964 56.7505H42.3143V58.7685H40.2964V56.7505ZM44.3322 56.7505H46.3502V58.7685H44.3322V56.7505ZM46.3502 56.7505H48.3681V58.7685H46.3502V56.7505ZM48.3681 56.7505H50.386V58.7685H48.3681V56.7505ZM50.386 56.7505H52.4039V58.7685H50.386V56.7505ZM52.4039 56.7505H54.4219V58.7685H52.4039V56.7505ZM54.4219 56.7505H56.4398V58.7685H54.4219V56.7505ZM56.4398 56.7505H58.4577V58.7685H56.4398V56.7505ZM62.4936 56.7505H64.5115V58.7685H62.4936V56.7505ZM64.5115 56.7505H66.5294V58.7685H64.5115V56.7505ZM68.5473 56.7505H70.5653V58.7685H68.5473V56.7505ZM70.5653 56.7505H72.5832V58.7685H70.5653V56.7505ZM72.5832 56.7505H74.6011V58.7685H72.5832V56.7505ZM74.6011 56.7505H76.619V58.7685H74.6011V56.7505ZM76.619 56.7505H78.637V58.7685H76.619V56.7505ZM78.637 56.7505H80.6549V58.7685H78.637V56.7505ZM84.6908 56.7505H86.7087V58.7685H84.6908V56.7505ZM86.7087 56.7505H88.7266V58.7685H86.7087V56.7505ZM16.0813 58.7685H18.0992V60.7864H16.0813V58.7685ZM18.0992 58.7685H20.1171V60.7864H18.0992V58.7685ZM22.135 58.7685H24.153V60.7864H22.135V58.7685ZM26.1709 58.7685H28.1888V60.7864H26.1709V58.7685ZM34.2426 58.7685H36.2605V60.7864H34.2426V58.7685ZM36.2605 58.7685H38.2784V60.7864H36.2605V58.7685ZM38.2784 58.7685H40.2964V60.7864H38.2784V58.7685ZM40.2964 58.7685H42.3143V60.7864H40.2964V58.7685ZM42.3143 58.7685H44.3322V60.7864H42.3143V58.7685ZM46.3502 58.7685H48.3681V60.7864H46.3502V58.7685ZM50.386 58.7685H52.4039V60.7864H50.386V58.7685ZM52.4039 58.7685H54.4219V60.7864H52.4039V58.7685ZM54.4219 58.7685H56.4398V60.7864H54.4219V58.7685ZM56.4398 58.7685H58.4577V60.7864H56.4398V58.7685ZM64.5115 58.7685H66.5294V60.7864H64.5115V58.7685ZM70.5653 58.7685H72.5832V60.7864H70.5653V58.7685ZM80.6549 58.7685H82.6728V60.7864H80.6549V58.7685ZM82.6728 58.7685H84.6908V60.7864H82.6728V58.7685ZM84.6908 58.7685H86.7087V60.7864H84.6908V58.7685ZM14.0633 60.7864H16.0813V62.8043H14.0633V60.7864ZM18.0992 60.7864H20.1171V62.8043H18.0992V60.7864ZM20.1171 60.7864H22.135V62.8043H20.1171V60.7864ZM22.135 60.7864H24.153V62.8043H22.135V60.7864ZM32.2247 60.7864H34.2426V62.8043H32.2247V60.7864ZM38.2784 60.7864H40.2964V62.8043H38.2784V60.7864ZM42.3143 60.7864H44.3322V62.8043H42.3143V60.7864ZM44.3322 60.7864H46.3502V62.8043H44.3322V60.7864ZM46.3502 60.7864H48.3681V62.8043H46.3502V60.7864ZM48.3681 60.7864H50.386V62.8043H48.3681V60.7864ZM52.4039 60.7864H54.4219V62.8043H52.4039V60.7864ZM56.4398 60.7864H58.4577V62.8043H56.4398V60.7864ZM58.4577 60.7864H60.4756V62.8043H58.4577V60.7864ZM60.4756 60.7864H62.4936V62.8043H60.4756V60.7864ZM70.5653 60.7864H72.5832V62.8043H70.5653V60.7864ZM72.5832 60.7864H74.6011V62.8043H72.5832V60.7864ZM76.619 60.7864H78.637V62.8043H76.619V60.7864ZM86.7087 60.7864H88.7266V62.8043H86.7087V60.7864ZM18.0992 62.8043H20.1171V64.8222H18.0992V62.8043ZM20.1171 62.8043H22.135V64.8222H20.1171V62.8043ZM24.153 62.8043H26.1709V64.8222H24.153V62.8043ZM26.1709 62.8043H28.1888V64.8222H26.1709V62.8043ZM34.2426 62.8043H36.2605V64.8222H34.2426V62.8043ZM36.2605 62.8043H38.2784V64.8222H36.2605V62.8043ZM40.2964 62.8043H42.3143V64.8222H40.2964V62.8043ZM44.3322 62.8043H46.3502V64.8222H44.3322V62.8043ZM46.3502 62.8043H48.3681V64.8222H46.3502V62.8043ZM52.4039 62.8043H54.4219V64.8222H52.4039V62.8043ZM54.4219 62.8043H56.4398V64.8222H54.4219V62.8043ZM56.4398 62.8043H58.4577V64.8222H56.4398V62.8043ZM58.4577 62.8043H60.4756V64.8222H58.4577V62.8043ZM64.5115 62.8043H66.5294V64.8222H64.5115V62.8043ZM68.5473 62.8043H70.5653V64.8222H68.5473V62.8043ZM70.5653 62.8043H72.5832V64.8222H70.5653V62.8043ZM72.5832 62.8043H74.6011V64.8222H72.5832V62.8043ZM74.6011 62.8043H76.619V64.8222H74.6011V62.8043ZM76.619 62.8043H78.637V64.8222H76.619V62.8043ZM78.637 62.8043H80.6549V64.8222H78.637V62.8043ZM80.6549 62.8043H82.6728V64.8222H80.6549V62.8043ZM82.6728 62.8043H84.6908V64.8222H82.6728V62.8043ZM84.6908 62.8043H86.7087V64.8222H84.6908V62.8043ZM86.7087 62.8043H88.7266V64.8222H86.7087V62.8043ZM30.2067 64.8222H32.2247V66.8402H30.2067V64.8222ZM32.2247 64.8222H34.2426V66.8402H32.2247V64.8222ZM34.2426 64.8222H36.2605V66.8402H34.2426V64.8222ZM38.2784 64.8222H40.2964V66.8402H38.2784V64.8222ZM44.3322 64.8222H46.3502V66.8402H44.3322V64.8222ZM46.3502 64.8222H48.3681V66.8402H46.3502V64.8222ZM50.386 64.8222H52.4039V66.8402H50.386V64.8222ZM52.4039 64.8222H54.4219V66.8402H52.4039V64.8222ZM54.4219 64.8222H56.4398V66.8402H54.4219V64.8222ZM58.4577 64.8222H60.4756V66.8402H58.4577V64.8222ZM60.4756 64.8222H62.4936V66.8402H60.4756V64.8222ZM62.4936 64.8222H64.5115V66.8402H62.4936V64.8222ZM64.5115 64.8222H66.5294V66.8402H64.5115V64.8222ZM70.5653 64.8222H72.5832V66.8402H70.5653V64.8222ZM78.637 64.8222H80.6549V66.8402H78.637V64.8222ZM80.6549 64.8222H82.6728V66.8402H80.6549V64.8222ZM82.6728 64.8222H84.6908V66.8402H82.6728V64.8222ZM84.6908 64.8222H86.7087V66.8402H84.6908V64.8222ZM86.7087 64.8222H88.7266V66.8402H86.7087V64.8222ZM14.0633 66.8402H16.0813V68.8581H14.0633V66.8402ZM16.0813 66.8402H18.0992V68.8581H16.0813V66.8402ZM18.0992 66.8402H20.1171V68.8581H18.0992V66.8402ZM20.1171 66.8402H22.135V68.8581H20.1171V66.8402ZM22.135 66.8402H24.153V68.8581H22.135V66.8402ZM24.153 66.8402H26.1709V68.8581H24.153V66.8402ZM26.1709 66.8402H28.1888V68.8581H26.1709V66.8402ZM36.2605 66.8402H38.2784V68.8581H36.2605V66.8402ZM44.3322 66.8402H46.3502V68.8581H44.3322V66.8402ZM46.3502 66.8402H48.3681V68.8581H46.3502V66.8402ZM52.4039 66.8402H54.4219V68.8581H52.4039V66.8402ZM54.4219 66.8402H56.4398V68.8581H54.4219V66.8402ZM56.4398 66.8402H58.4577V68.8581H56.4398V66.8402ZM64.5115 66.8402H66.5294V68.8581H64.5115V66.8402ZM66.5294 66.8402H68.5473V68.8581H66.5294V66.8402ZM70.5653 66.8402H72.5832V68.8581H70.5653V66.8402ZM74.6011 66.8402H76.619V68.8581H74.6011V66.8402ZM78.637 66.8402H80.6549V68.8581H78.637V66.8402ZM80.6549 66.8402H82.6728V68.8581H80.6549V66.8402ZM84.6908 66.8402H86.7087V68.8581H84.6908V66.8402ZM86.7087 66.8402H88.7266V68.8581H86.7087V66.8402ZM14.0633 68.8581H16.0813V70.876H14.0633V68.8581ZM26.1709 68.8581H28.1888V70.876H26.1709V68.8581ZM30.2067 68.8581H32.2247V70.876H30.2067V68.8581ZM32.2247 68.8581H34.2426V70.876H32.2247V68.8581ZM34.2426 68.8581H36.2605V70.876H34.2426V68.8581ZM38.2784 68.8581H40.2964V70.876H38.2784V68.8581ZM40.2964 68.8581H42.3143V70.876H40.2964V68.8581ZM42.3143 68.8581H44.3322V70.876H42.3143V68.8581ZM44.3322 68.8581H46.3502V70.876H44.3322V68.8581ZM46.3502 68.8581H48.3681V70.876H46.3502V68.8581ZM52.4039 68.8581H54.4219V70.876H52.4039V68.8581ZM54.4219 68.8581H56.4398V70.876H54.4219V68.8581ZM58.4577 68.8581H60.4756V70.876H58.4577V68.8581ZM62.4936 68.8581H64.5115V70.876H62.4936V68.8581ZM66.5294 68.8581H68.5473V70.876H66.5294V68.8581ZM68.5473 68.8581H70.5653V70.876H68.5473V68.8581ZM70.5653 68.8581H72.5832V70.876H70.5653V68.8581ZM78.637 68.8581H80.6549V70.876H78.637V68.8581ZM80.6549 68.8581H82.6728V70.876H80.6549V68.8581ZM86.7087 68.8581H88.7266V70.876H86.7087V68.8581ZM14.0633 70.876H16.0813V72.8939H14.0633V70.876ZM18.0992 70.876H20.1171V72.8939H18.0992V70.876ZM20.1171 70.876H22.135V72.8939H20.1171V70.876ZM22.135 70.876H24.153V72.8939H22.135V70.876ZM26.1709 70.876H28.1888V72.8939H26.1709V70.876ZM32.2247 70.876H34.2426V72.8939H32.2247V70.876ZM36.2605 70.876H38.2784V72.8939H36.2605V70.876ZM44.3322 70.876H46.3502V72.8939H44.3322V70.876ZM48.3681 70.876H50.386V72.8939H48.3681V70.876ZM52.4039 70.876H54.4219V72.8939H52.4039V70.876ZM58.4577 70.876H60.4756V72.8939H58.4577V70.876ZM60.4756 70.876H62.4936V72.8939H60.4756V70.876ZM70.5653 70.876H72.5832V72.8939H70.5653V70.876ZM72.5832 70.876H74.6011V72.8939H72.5832V70.876ZM74.6011 70.876H76.619V72.8939H74.6011V70.876ZM76.619 70.876H78.637V72.8939H76.619V70.876ZM78.637 70.876H80.6549V72.8939H78.637V70.876ZM80.6549 70.876H82.6728V72.8939H80.6549V70.876ZM84.6908 70.876H86.7087V72.8939H84.6908V70.876ZM14.0633 72.8939H16.0813V74.9119H14.0633V72.8939ZM18.0992 72.8939H20.1171V74.9119H18.0992V72.8939ZM20.1171 72.8939H22.135V74.9119H20.1171V72.8939ZM22.135 72.8939H24.153V74.9119H22.135V72.8939ZM26.1709 72.8939H28.1888V74.9119H26.1709V72.8939ZM30.2067 72.8939H32.2247V74.9119H30.2067V72.8939ZM34.2426 72.8939H36.2605V74.9119H34.2426V72.8939ZM36.2605 72.8939H38.2784V74.9119H36.2605V72.8939ZM40.2964 72.8939H42.3143V74.9119H40.2964V72.8939ZM42.3143 72.8939H44.3322V74.9119H42.3143V72.8939ZM48.3681 72.8939H50.386V74.9119H48.3681V72.8939ZM54.4219 72.8939H56.4398V74.9119H54.4219V72.8939ZM56.4398 72.8939H58.4577V74.9119H56.4398V72.8939ZM58.4577 72.8939H60.4756V74.9119H58.4577V72.8939ZM62.4936 72.8939H64.5115V74.9119H62.4936V72.8939ZM64.5115 72.8939H66.5294V74.9119H64.5115V72.8939ZM68.5473 72.8939H70.5653V74.9119H68.5473V72.8939ZM74.6011 72.8939H76.619V74.9119H74.6011V72.8939ZM78.637 72.8939H80.6549V74.9119H78.637V72.8939ZM80.6549 72.8939H82.6728V74.9119H80.6549V72.8939ZM84.6908 72.8939H86.7087V74.9119H84.6908V72.8939ZM14.0633 74.9119H16.0813V76.9298H14.0633V74.9119ZM18.0992 74.9119H20.1171V76.9298H18.0992V74.9119ZM20.1171 74.9119H22.135V76.9298H20.1171V74.9119ZM22.135 74.9119H24.153V76.9298H22.135V74.9119ZM26.1709 74.9119H28.1888V76.9298H26.1709V74.9119ZM30.2067 74.9119H32.2247V76.9298H30.2067V74.9119ZM32.2247 74.9119H34.2426V76.9298H32.2247V74.9119ZM34.2426 74.9119H36.2605V76.9298H34.2426V74.9119ZM40.2964 74.9119H42.3143V76.9298H40.2964V74.9119ZM42.3143 74.9119H44.3322V76.9298H42.3143V74.9119ZM46.3502 74.9119H48.3681V76.9298H46.3502V74.9119ZM52.4039 74.9119H54.4219V76.9298H52.4039V74.9119ZM54.4219 74.9119H56.4398V76.9298H54.4219V74.9119ZM58.4577 74.9119H60.4756V76.9298H58.4577V74.9119ZM60.4756 74.9119H62.4936V76.9298H60.4756V74.9119ZM74.6011 74.9119H76.619V76.9298H74.6011V74.9119ZM76.619 74.9119H78.637V76.9298H76.619V74.9119ZM78.637 74.9119H80.6549V76.9298H78.637V74.9119ZM80.6549 74.9119H82.6728V76.9298H80.6549V74.9119ZM84.6908 74.9119H86.7087V76.9298H84.6908V74.9119ZM14.0633 76.9298H16.0813V78.9477H14.0633V76.9298ZM26.1709 76.9298H28.1888V78.9477H26.1709V76.9298ZM30.2067 76.9298H32.2247V78.9477H30.2067V76.9298ZM32.2247 76.9298H34.2426V78.9477H32.2247V76.9298ZM36.2605 76.9298H38.2784V78.9477H36.2605V76.9298ZM38.2784 76.9298H40.2964V78.9477H38.2784V76.9298ZM42.3143 76.9298H44.3322V78.9477H42.3143V76.9298ZM44.3322 76.9298H46.3502V78.9477H44.3322V76.9298ZM50.386 76.9298H52.4039V78.9477H50.386V76.9298ZM54.4219 76.9298H56.4398V78.9477H54.4219V76.9298ZM58.4577 76.9298H60.4756V78.9477H58.4577V76.9298ZM64.5115 76.9298H66.5294V78.9477H64.5115V76.9298ZM66.5294 76.9298H68.5473V78.9477H66.5294V76.9298ZM72.5832 76.9298H74.6011V78.9477H72.5832V76.9298ZM80.6549 76.9298H82.6728V78.9477H80.6549V76.9298ZM82.6728 76.9298H84.6908V78.9477H82.6728V76.9298ZM14.0633 78.9477H16.0813V80.9657H14.0633V78.9477ZM16.0813 78.9477H18.0992V80.9657H16.0813V78.9477ZM18.0992 78.9477H20.1171V80.9657H18.0992V78.9477ZM20.1171 78.9477H22.135V80.9657H20.1171V78.9477ZM22.135 78.9477H24.153V80.9657H22.135V78.9477ZM24.153 78.9477H26.1709V80.9657H24.153V78.9477ZM26.1709 78.9477H28.1888V80.9657H26.1709V78.9477ZM34.2426 78.9477H36.2605V80.9657H34.2426V78.9477ZM36.2605 78.9477H38.2784V80.9657H36.2605V78.9477ZM38.2784 78.9477H40.2964V80.9657H38.2784V78.9477ZM40.2964 78.9477H42.3143V80.9657H40.2964V78.9477ZM44.3322 78.9477H46.3502V80.9657H44.3322V78.9477ZM52.4039 78.9477H54.4219V80.9657H52.4039V78.9477ZM58.4577 78.9477H60.4756V80.9657H58.4577V78.9477ZM60.4756 78.9477H62.4936V80.9657H60.4756V78.9477ZM62.4936 78.9477H64.5115V80.9657H62.4936V78.9477ZM64.5115 78.9477H66.5294V80.9657H64.5115V78.9477ZM66.5294 78.9477H68.5473V80.9657H66.5294V78.9477ZM68.5473 78.9477H70.5653V80.9657H68.5473V78.9477ZM74.6011 78.9477H76.619V80.9657H74.6011V78.9477ZM76.619 78.9477H78.637V80.9657H76.619V78.9477ZM82.6728 78.9477H84.6908V80.9657H82.6728V78.9477ZM84.6908 78.9477H86.7087V80.9657H84.6908V78.9477ZM86.7087 78.9477H88.7266V80.9657H86.7087V78.9477Z" fill="black"/>
<line x1="9.5" y1="3" x2="9.5" y2="30.2936" stroke="black" stroke-width="3"/>
<line x1="8" y1="1.88989" x2="35.2936" y2="1.88989" stroke="black" stroke-width="3"/>
<line x1="92" y1="2.5" x2="64.7064" y2="2.5" stroke="black" stroke-width="3"/>
<line x1="93.1101" y1="1" x2="93.1101" y2="28.2936" stroke="black" stroke-width="3"/>
<line x1="10.1697" y1="85.5" x2="37.4633" y2="85.5" stroke="black" stroke-width="3"/>
<line x1="9.05959" y1="87" x2="9.05959" y2="59.7064" stroke="black" stroke-width="3"/>
<line x1="93.5" y1="84" x2="93.5" y2="56.7064" stroke="black" stroke-width="3"/>
<line x1="95" y1="85.1101" x2="67.7064" y2="85.1101" stroke="black" stroke-width="3"/>
<g filter="url(#filter0_f_52_19)">
<line x1="10.3394" y1="42" x2="91.8303" y2="42" stroke="#F73B3B" stroke-width="3"/>
</g>
<line x1="10.3394" y1="42" x2="91.8303" y2="42" stroke="#F73B3B" stroke-width="3"/>
<defs>
<filter id="filter0_f_52_19" x="0.339447" y="30.5" width="101.491" height="23" filterUnits="userSpaceOnUse" color-interpolation-filters="sRGB">
<feFlood flood-opacity="0" result="BackgroundImageFix"/>
<feBlend mode="normal" in="SourceGraphic" in2="BackgroundImageFix" result="shape"/>
<feGaussianBlur stdDeviation="5" result="effect1_foregroundBlur_52_19"/>
</filter>
</defs>
</svg>
